<svg xmlns="http://www.w3.org/2000/svg" xmlns:xlink="http://www.w3.org/1999/xlink" xml:space="preserve" version="1.1" style="shape-rendering:geometricPrecision;text-rendering:geometricPrecision;image-rendering:optimizeQuality;" viewBox="0 0 6207 13098.75" x="0px" y="0px" fill-rule="evenodd" clip-rule="evenodd"><defs><style type="text/css">
   
    .fil0 {fill:black;fill-rule:nonzero}
   
  </style></defs><g><path class="fil0" d="M5576 9298c251,32 384,321 238,532 304,109 393,354 393,649l-6207 0c0,-295 89,-540 393,-649 -146,-211 -13,-500 238,-532 54,-1132 625,-818 556,-2103 -293,-90 -336,-525 -64,-679 -163,-1805 1991,-2540 1819,-3897 -123,455 -679,535 -1074,462 -117,52 -213,173 -304,288 -30,37 -60,75 -86,105 -13,16 -30,26 -49,30 1,1 -713,195 -709,-700 0,-21 8,-41 21,-57 -1,0 943,-1167 1029,-1272 99,-281 253,-305 339,-485 2,-22 -120,-401 6,-919 11,-46 61,-81 107,-68 278,58 542,259 763,473 11,-66 36,-152 120,-143 2302,269 3129,2992 2271,4935 -191,434 -257,788 -277,1258 258,164 205,581 -78,669 -64,1293 501,973 555,2103zm-4984 681c-191,0 -356,134 -398,316l5819 0c-42,-182 -207,-316 -398,-316l-5023 0zm1681 -9773c-49,256 -41,513 19,766 6,19 6,40 -2,60 -96,243 -262,235 -351,514 -4,11 -9,22 -17,31 -339,420 -679,840 -1019,1260 3,213 45,356 124,433 72,71 184,90 332,62 135,-163 259,-355 467,-431 85,-34 1169,148 930,-582 -70,-214 198,-297 271,-103 663,1743 -1862,2385 -1723,4260 1205,0 2409,-1 3614,-4 9,-444 109,-867 290,-1278 798,-1808 70,-4361 -2045,-4669 -5,44 -3,114 0,162 6,89 -100,132 -158,70 -192,-206 -460,-458 -732,-551zm2656 6467l-3651 0c-207,0 -202,338 0,338l3651 0c207,0 202,-338 0,-338zm-93 536c-1155,0 -2309,0 -3464,0 115,1323 -542,1075 -559,2086 1527,0 3054,0 4581,0 -16,-1007 -668,-754 -558,-2086zm697 2270l-4859 0c-210,0 -205,316 0,316l4859 0c210,0 205,-316 0,-316z"/></g><text x="0" y="10494" fill="#000000" font-size="5px" font-weight="bold" font-family="'Helvetica Neue', Helvetica, Arial-Unicode, Arial, Sans-serif">Created by jhon</text><text x="0" y="10499" fill="#000000" font-size="5px" font-weight="bold" font-family="'Helvetica Neue', Helvetica, Arial-Unicode, Arial, Sans-serif">from the Noun Project</text></svg>